<!DOCTYPE svg PUBLIC "-//W3C//DTD SVG 1.1//EN" "http://www.w3.org/Graphics/SVG/1.1/DTD/svg11.dtd">
<!-- Uploaded to: SVG Repo, www.svgrepo.com, Transformed by: SVG Repo Mixer Tools -->
<svg width="205px" height="205px" viewBox="-33.65 0 317.884 317.884" xmlns="http://www.w3.org/2000/svg" fill="#000000">
<g id="SVGRepo_bgCarrier" stroke-width="0"/>
<g id="SVGRepo_tracerCarrier" stroke-linecap="round" stroke-linejoin="round"/>
<g id="SVGRepo_iconCarrier">
<defs>
<style>.a{fill:#f6c385;}.b{fill:#fce0cd;}.c{fill:#211715;}.d{fill:#f4b467;}</style>
</defs>
<path class="a" d="M5.238,287.807A46.328,46.328,0,0,1,4.5,246.528c9.953,0,27.756-.035,47.74-.067a3,3,0,0,1,2.816,1.955c2.169,5.808,8.928,14.057,21.355,14.057,13.061,0,20.254-8.024,22.438-14.152a2.981,2.981,0,0,1,2.81-1.975c18.618-.038,38.382-.071,48.482-.084,2.711,4.585,3.071,13.609,3.062,15.175a46.935,46.935,0,0,1-3.436,17.136,54.389,54.389,0,0,1-13.806,19.6c-16.044,14.724-37.31,18.805-57.637,19.563-20.984.781-45.607-.953-62.935-16.6a44.644,44.644,0,0,1-4.2-4.351A47.06,47.06,0,0,1,5.238,287.807Z"/>
<path class="b" d="M76.939,54.359c2.32-5.78,4.68-13.18,8.31-15.7,1.13-.79,2.26-1.58,3.38-2.39,13.22-9.57,20.76-19.85,33.87-29.5a22.389,22.389,0,0,1,14.34-4.37c45.36,2.23,66.16,17.04,110.6,25.53l.765,64.99c-17.453,8.248-33.034,19.7-44.538,19.887-7.807.971-15.585-.644-25.989-1.272a106.737,106.737,0,0,0-26.671,1.747c-20.641,3.994-32.259,11.611-53.123,14.2-4.027.5-8.22.7-12.04-.668-3.476-1.244-6.589-4.051-7.449-7.586L67.922,122.88c-.907.283-1.925.544-3.2.893-3.47.948-8.1-1.261-8.762-4.653s1.056-6.73,2.625-9.8a172.54,172.54,0,0,0,14-37.834c1.51-6.245,2.679-12.6,4.987-18.6"/>
<path class="c" d="M147.9,39.706c-2.21,4.213-2.92,8.855-3.724,13.485-.726,4.173-1.544,8.672-4.472,11.923-2.063,2.289,1.321,5.695,3.394,3.394,3.277-3.638,4.651-8.239,5.515-12.962.824-4.511,1.27-9.3,3.432-13.417,1.434-2.733-2.707-5.162-4.145-2.423Z"/>
<path class="c" d="M126.668,45.052Q132.5,54.514,138.8,63.679a2.462,2.462,0,0,0,3.284.861,2.423,2.423,0,0,0,.861-3.284q-6.3-9.162-12.132-18.626c-1.619-2.625-5.772-.217-4.145,2.422Z"/>
<path class="c" d="M79.254,55c1.132-2.835,2.14-5.727,3.422-8.5.939-2.032,2.189-4.5,3.785-5.766,2.839-2.245,5.9-4.2,8.712-6.493,2.629-2.141,5.157-4.4,7.634-6.715,4.945-4.621,9.7-9.441,14.847-13.845,5-4.277,10.19-8.544,17.051-8.879a79.2,79.2,0,0,1,10.834.6c3.194.289,6.384.645,9.559,1.1,5.933.846,11.822,1.977,17.654,3.354,10.961,2.589,21.672,6.077,32.406,9.459A372.044,372.044,0,0,0,246.8,30.243a2.465,2.465,0,0,0,2.953-1.676,2.423,2.423,0,0,0-1.676-2.953,352.891,352.891,0,0,1-38.464-9.933c-10.977-3.422-21.893-7.068-33.058-9.844A206.482,206.482,0,0,0,137.784.047a25.684,25.684,0,0,0-10.325,1.39,34.357,34.357,0,0,0-9.306,5.65c-5.528,4.34-10.559,9.24-15.629,14.094A157.408,157.408,0,0,1,84.415,36.323c-5.552,3.915-7.394,11.4-9.79,17.4A2.417,2.417,0,0,0,76.3,56.673,2.458,2.458,0,0,0,79.254,55Z"/>
<path class="c" d="M75.258,52.244c-2.2,5.8-3.391,11.894-4.823,17.914a172.8,172.8,0,0,1-5.187,17.61,167.02,167.02,0,0,1-6.885,16.588C56,109.284,51.478,115.671,54.2,121.311a9.461,9.461,0,0,0,5.954,4.672c2.9.837,5.622.062,8.41-.789,2.946-.9,1.69-5.534-1.276-4.629-1.878.574-3.773,1.353-5.7.835-1.436-.386-2.976-1.354-3.281-2.774-.518-2.416.788-4.993,1.837-7.087,1.245-2.486,2.493-4.967,3.652-7.5A175.748,175.748,0,0,0,74.9,72.12c1.51-6.243,2.7-12.577,4.988-18.6a2.42,2.42,0,0,0-1.677-2.952,2.453,2.453,0,0,0-2.952,1.676Z"/>
<path class="c" d="M135.342,54.478a32.5,32.5,0,0,1-8.673,4.167c-3.418.962-6.935,1.58-10.3,2.73-4.533,1.55-7.011,5.866-8.872,10.019-1.651,3.686-3.325,7.361-4.984,11.043a2.473,2.473,0,0,0,.861,3.283,2.417,2.417,0,0,0,3.283-.861c1.6-3.552,3.227-7.093,4.812-10.652a26.318,26.318,0,0,1,3.172-5.743,9.8,9.8,0,0,1,1.674-1.818,9.089,9.089,0,0,1,2.972-1.139c3.1-.9,6.293-1.5,9.381-2.445a38.253,38.253,0,0,0,9.1-4.439c2.606-1.644.2-5.8-2.422-4.145Z"/>
<path class="c" d="M67.264,185.893c0,4.652-.04,9.305-.041,13.957a2.4,2.4,0,1,0,4.8,0c0-4.652.041-9.305.041-13.957a2.4,2.4,0,1,0-4.8,0Z"/>
<path class="c" d="M78.983,161.884c0,10.389-.052,20.778-.08,31.167-.008,3.089,4.792,3.094,4.8,0,.028-10.389.078-20.778.08-31.167,0-3.089-4.8-3.094-4.8,0Z"/>
<path class="c" d="M81.217,137.24c-.112.122-.227.24-.35.351-.063.057-.126.111-.191.164l.284-.219c-.268.1-.529.338-.793.471q-.344.156.19-.079c-.089.034-.179.066-.27.095-.142.046-.285.086-.429.121-.1.024-.2.045-.3.064q-.391.066.161-.013a2.177,2.177,0,0,1-.481.013c-.2-.007-.4-.026-.606-.039-.467-.029.549.106.068.012a9.178,9.178,0,0,1-.911-.211c-.139-.042-.275-.1-.415-.142-.165-.044.58.274.077.028a5.366,5.366,0,0,1-.688-.4c-.409-.281.059.119.136.112-.062.006-.271-.239-.318-.285-.075-.073-.148-.149-.218-.227-.159-.177-.336-.564.049.083-.122-.205-.266-.4-.38-.607-.048-.09-.09-.182-.136-.273-.177-.355.245.648.049.1a6.246,6.246,0,0,1-.2-.685c-.023-.1-.043-.2-.061-.3-.105-.583.045.538.014.131a8.74,8.74,0,0,1,0-1.438,2.409,2.409,0,0,0-2.4-2.4,2.463,2.463,0,0,0-2.4,2.4,8.065,8.065,0,0,0,9.624,8.822,7.424,7.424,0,0,0,4.293-2.255,2.4,2.4,0,0,0-3.394-3.394Z"/>
<path class="d" d="M81.089,215.6a6.555,6.555,0,0,1,2.4,5.32c-.078,2.735-1.437,5.972-5.653,6.358-7.709,0-8.075-7.149-5.459-10.525A6.461,6.461,0,0,1,81.089,215.6Z"/>
<path class="c" d="M79.675,217.018c.3.239.541.521.818.78.158.147-.012-.03-.038-.064.071.092.138.191.2.288.113.171.218.349.315.531.05.1.255.611.13.249.058.17.122.336.173.508s.1.347.133.523c.025.118.045.236.066.354-.034-.2-.018-.182-.007.008a8.583,8.583,0,0,1,0,1.027c-.009.142-.023.282-.036.424-.031.334.083-.435-.009.017-.054.266-.109.53-.184.791-.035.121-.073.242-.115.361-.027.079-.058.158-.087.237-.108.3.026-.128.054-.127a8.224,8.224,0,0,0-.394.729,2.075,2.075,0,0,1-.255.372c-.027-.006.276-.307.11-.151-.062.058-.115.133-.174.195q-.157.169-.33.326a1.92,1.92,0,0,0-.153.131c-.154.174.145-.123.137-.1-.081.207-.661.409-.852.509-.041.021-.273.117-.034.02.259-.106-.053.015-.117.037-.151.049-.3.1-.456.139-.189.051-.379.089-.571.128-.031.006-.316.05-.081.017s-.13,0-.176.006a9.655,9.655,0,0,1-1.048-.055c-.4-.033.318.065-.065-.007-.187-.036-.374-.068-.56-.112-.283-.067-.558-.155-.833-.247-.436-.145.249.135-.047-.012-.126-.063-.254-.123-.377-.191-.06-.032-.638-.4-.635-.4.02-.023.373.323.056.036-.107-.1-.215-.194-.317-.3-.087-.089-.167-.184-.251-.276-.012-.013-.105-.108-.1-.122.008-.03.256.373.154.195-.12-.209-.269-.4-.384-.616a1.437,1.437,0,0,0-.159-.324c.127.108.16.428.046.1-.078-.227-.152-.454-.208-.688-.024-.1-.042-.2-.064-.3a1.121,1.121,0,0,0-.035-.2c-.01-.021.05.484.037.277-.015-.24-.044-.478-.047-.72,0-.223,0-.447.021-.67a2.02,2.02,0,0,0,.03-.308c.048.543-.039.264.006.023a8.923,8.923,0,0,1,.37-1.323c.138-.4-.169.344-.03.062.044-.089.084-.18.128-.268a6.663,6.663,0,0,1,.336-.594c.069-.108.144-.211.215-.317.034-.051.133-.2-.029.035-.178.263,0,.009.051-.045.132-.135.258-.274.4-.4s.431-.3.105-.1c.327-.2.634-.407.975-.582.058-.03.363-.163.115-.058s.08-.027.125-.043c.174-.062.35-.118.528-.166.206-.056.414-.1.623-.139.047-.009.31-.033.052-.011-.3.027.157-.006.216-.009.189-.01.378-.012.567,0,.082,0,.163.009.245.013.507.022-.247-.066.037,0,.188.043.378.074.565.125.138.037.68.237.315.079a5.954,5.954,0,0,1,1.2.721,2.005,2.005,0,0,0,2.736-.717,2.06,2.06,0,0,0-.718-2.737,8.456,8.456,0,0,0-10.872,1.15,9.171,9.171,0,0,0-2.25,7.159,7.745,7.745,0,0,0,5.263,6.553,8.373,8.373,0,0,0,9.881-3.011c2.277-3.517,1.7-8.872-1.617-11.538a2.05,2.05,0,0,0-2.828,0A2.022,2.022,0,0,0,79.675,217.018Z"/>
<path class="c" d="M139.205,65.875c-9.514,13.747-24.982,21.534-39.31,29.247-3.742,2.015-7.478,4.044-11.141,6.2-3.529,2.078-7.114,4.358-9.71,7.586-2.616,3.253-4.146,7.475-2.776,11.61a14.246,14.246,0,0,0,8.937,8.607c4.852,1.749,10.176,1.128,15.16.423a109.81,109.81,0,0,0,13.516-2.814c8.2-2.236,16.135-5.326,24.27-7.776a115.868,115.868,0,0,1,29.542-5.158,124.648,124.648,0,0,1,15.577.567c4.455.408,8.906.973,13.381,1.112a53.067,53.067,0,0,0,11.195-.735,47.033,47.033,0,0,0,10.481-3.568c8.439-3.769,16.346-8.651,24.534-12.918q3.248-1.692,6.554-3.267a2.422,2.422,0,0,0,.861-3.284,2.453,2.453,0,0,0-3.284-.861c-8.416,3.993-16.418,8.764-24.678,13.058a81.868,81.868,0,0,1-10.564,4.787,36.527,36.527,0,0,1-9.182,1.834c-8.685.816-17.446-1.035-26.108-1.458a111.566,111.566,0,0,0-30.57,2.85c-16.775,3.882-32.5,11.744-49.806,13.36-4.163.389-8.821.372-12.315-2.267-2.726-2.06-4.06-5.461-2.565-8.676,1.553-3.341,4.817-5.714,7.863-7.6,3.428-2.126,6.976-4.067,10.52-5.992,14.131-7.675,29.3-14.987,39.927-27.45a62.641,62.641,0,0,0,3.836-5,2.422,2.422,0,0,0-.861-3.283,2.448,2.448,0,0,0-3.284.861Z"/>
<path class="c" d="M151.812,243.86q-16.6.019-33.2.053l-10.271.02-5.169.01c-1.836,0-3.493.079-4.953,1.347a7.14,7.14,0,0,0-1.806,3c.192-.476-.1.211-.114.249-.1.209-.2.419-.305.626q-.33.645-.708,1.264a18.14,18.14,0,0,1-3.57,4.257c-7.34,6.635-19.787,7.315-27.79,1.414a19.467,19.467,0,0,1-5.459-6.256q-.286-.512-.543-1.038c-.1-.2-.192-.406-.284-.611-.113-.259-.117-.268-.01-.025-.053-.129-.1-.259-.152-.39a5.682,5.682,0,0,0-2.628-3.1c-1.674-.859-3.655-.615-5.474-.612l-10.55.017q-18.121.03-36.241.047c-3.089,0-3.094,4.8,0,4.8q15.608,0,31.215-.039l10.226-.017,5.35-.008c.825,0,1.65.007,2.475-.005.694-.01.719,0,1.1.455.226.266.635,1.534.926,2.116a21.256,21.256,0,0,0,1.492,2.524,24.924,24.924,0,0,0,4.239,4.8c8.46,7.283,21.468,8.044,31.085,2.544a24.221,24.221,0,0,0,9.22-9.292,20.8,20.8,0,0,0,1.124-2.441c.387-1,.842-.818,2.131-.821l10.333-.02q19.154-.036,38.307-.063c3.089,0,3.094-4.8,0-4.8Z"/>
<path class="c" d="M25.811,266.511c4,0,8-.117,12-.119a2.4,2.4,0,0,0,0-4.8c-4,0-8,.117-12,.119a2.4,2.4,0,1,0,0,4.8Z"/>
<path class="c" d="M60.405,293.373c4,0,8-.1,12-.105a2.4,2.4,0,1,0,0-4.8c-4,0-8,.1-12,.1a2.4,2.4,0,0,0,0,4.8Z"/>
<path class="c" d="M112.331,275.415c4,0,8-.039,12-.04a2.4,2.4,0,0,0,0-4.8c-4,0-8,.039-12,.04a2.4,2.4,0,0,0,0,4.8Z"/>
</g>
</svg>