<!DOCTYPE svg PUBLIC "-//W3C//DTD SVG 1.1//EN" "http://www.w3.org/Graphics/SVG/1.1/DTD/svg11.dtd">
<!-- Uploaded to: SVG Repo, www.svgrepo.com, Transformed by: SVG Repo Mixer Tools -->
<svg height="205px" width="205px" version="1.1" id="Layer_1" xmlns="http://www.w3.org/2000/svg" xmlns:xlink="http://www.w3.org/1999/xlink" viewBox="0 0 512 512" xml:space="preserve" fill="#000000">
<g id="SVGRepo_bgCarrier" stroke-width="0"/>
<g id="SVGRepo_tracerCarrier" stroke-linecap="round" stroke-linejoin="round"/>
<g id="SVGRepo_iconCarrier"> <circle style="fill:#dedede;" cx="256" cy="256" r="256"/> <path style="fill:#b8b7b7;" d="M240.631,283.114l-149.98,55.398l173.353,173.352c100.147-3.077,185.809-63.66,225.075-149.852 l-159.21-159.21L210.542,226.17l104.665,104.665l-13.428,13.427L240.631,283.114z"/> <path style="fill:#24333D;" d="M256,323.663c0,23.564-38.205,42.667-85.333,42.667s-85.333-19.103-85.333-42.667 c0-23.564,59.754-60.768,106.882-60.768S256,300.099,256,323.663z"/> <path style="fill:#101C23;" d="M256,323.663c0-22.373-15.034-57.016-56.889-60.464v100.693C232.251,358.035,256,342.238,256,323.663 z"/> <path style="fill:#24333D;" d="M288.201,326.472c-2.029,18.791,26.791,37.314,64.372,41.372s69.692-7.883,71.721-26.674 c2.029-18.791-42.417-53.603-79.998-57.663C306.716,279.449,290.23,307.681,288.201,326.472z"/> <path style="fill:#101C23;" d="M344.297,283.507c-3.572-0.386-6.951-0.476-10.147-0.315v81.355 c5.813,1.472,11.985,2.601,18.423,3.298c37.581,4.058,69.692-7.883,71.721-26.674C426.325,322.379,381.88,287.566,344.297,283.507z"/> <path style="fill:#24333D;" d="M205.172,210.387c-2.029,18.791,26.791,37.314,64.372,41.372s69.692-7.883,71.721-26.674 c2.029-18.791-42.417-53.605-79.998-57.663C223.687,163.364,207.201,191.597,205.172,210.387z"/> <path style="fill:#101C23;" d="M261.268,167.422c-1.81-0.195-3.555-0.293-5.268-0.345v82.529c4.351,0.922,8.88,1.65,13.545,2.153 c37.581,4.058,69.692-7.883,71.721-26.674C343.295,206.295,298.849,171.482,261.268,167.422z"/> <ellipse style="fill:#394A54;" cx="199.111" cy="295.219" rx="28.444" ry="14.222"/> <path style="fill:#1E2C33;" d="M227.556,295.219c0-7.854-12.734-14.222-28.444-14.222v28.444 C214.821,309.441,227.556,303.073,227.556,295.219z"/> <ellipse style="fill:#394A54;" cx="256" cy="185.32" rx="20.687" ry="10.343"/> <path style="fill:#1E2C33;" d="M276.687,185.32c0-5.713-9.261-10.343-20.687-10.343v20.687 C267.426,195.663,276.687,191.033,276.687,185.32z"/> <ellipse style="fill:#394A54;" cx="333.576" cy="316.337" rx="20.687" ry="10.343"/> <path style="fill:#1E2C33;" d="M354.263,316.337c0-5.615-8.956-10.174-20.111-10.33v20.658 C345.307,326.511,354.263,321.951,354.263,316.337z"/> </g>
</svg>